<svg width="1061" height="398" viewBox="0 0 1061 398" fill="none" xmlns="http://www.w3.org/2000/svg">
<g filter="url(#filter0_f_9_10)">
<path d="M515.132 -254.216C519.068 -270.296 541.932 -270.296 545.868 -254.216C549.306 -240.171 568.229 -237.716 575.137 -250.419L578.534 -256.666C586.001 -270.398 606.891 -264.689 606.336 -249.068C605.844 -235.204 622.979 -228.338 632.197 -238.706L641.328 -248.978C651.07 -259.936 668.86 -249.809 664.411 -235.838C660.396 -223.228 674.955 -212.911 685.522 -220.88L699.654 -231.537C710.691 -239.86 725.05 -226.695 717.713 -214.978C710.997 -204.252 722.701 -191.505 733.96 -197.284L750.585 -205.816C762.309 -211.832 773.38 -196.727 764.112 -187.359C755.538 -178.693 764.443 -164.366 776.009 -168.219L792.172 -173.603C804.252 -177.627 812.351 -161.311 801.843 -154.122C792.054 -147.425 798.364 -132.114 810.029 -134.259L823.151 -136.672C835.432 -138.93 840.868 -121.826 829.537 -116.579C818.941 -111.673 822.862 -95.7492 834.525 -96.3245L842.757 -96.7306C855.183 -97.3436 858.165 -79.6625 846.226 -76.1658C835.049 -72.8927 836.716 -56.5694 848.323 -55.623L850.661 -55.4325C863.216 -54.4088 863.568 -36.2064 851.109 -34.3546C839.546 -32.6363 838.834 -16.143 850.254 -13.6473C862.459 -10.9799 860.667 6.95068 848.176 7.14999L842.819 7.23547C831.179 7.4212 828.395 23.5649 839.301 27.6383C850.954 31.9908 846.763 49.4004 834.406 47.9729L823.549 46.7187C811.877 45.3704 806.784 61.0223 817.014 66.8012C827.972 72.991 821.238 89.738 809.045 86.6188L794.122 82.801C782.489 79.8249 774.909 94.7027 784.155 102.364C794.112 110.614 784.569 126.394 772.639 121.408L755.886 114.407C744.438 109.623 734.154 123.251 741.895 132.948C750.302 143.479 737.622 157.728 726.185 150.601L710.439 140.788C699.463 133.947 686.322 145.6 691.8 157.316C697.823 170.198 681.745 182.003 671.258 172.398L659.39 161.529C649.396 152.377 633.484 161.099 635.825 174.447C638.439 189.357 619.015 197.454 610.264 185.102L604.073 176.362C595.875 164.789 577.712 169.553 576.25 183.66C574.587 199.69 552.513 202.676 546.651 187.664L545.518 184.761C540.177 171.084 520.823 171.084 515.482 184.761L514.349 187.664C508.487 202.676 486.413 199.69 484.75 183.66C483.288 169.553 465.125 164.789 456.927 176.362L450.736 185.102C441.985 197.454 422.561 189.357 425.175 174.447C427.516 161.099 411.604 152.377 401.61 161.529L389.742 172.398C379.255 182.003 363.177 170.198 369.2 157.316C374.678 145.6 361.537 133.947 350.561 140.788L334.815 150.601C323.378 157.728 310.698 143.479 319.105 132.948C326.846 123.251 316.562 109.623 305.113 114.407L288.361 121.408C276.431 126.394 266.888 110.614 276.845 102.364C286.091 94.7027 278.511 79.8249 266.878 82.801L251.955 86.6188C239.762 89.738 233.028 72.991 243.986 66.8012C254.216 61.0223 249.123 45.3704 237.451 46.7187L226.594 47.9729C214.237 49.4004 210.046 31.9908 221.699 27.6383C232.605 23.5649 229.821 7.4212 218.181 7.23547L212.824 7.14999C200.332 6.95068 198.541 -10.9799 210.746 -13.6473C222.166 -16.143 221.454 -32.6363 209.891 -34.3546C197.432 -36.2064 197.784 -54.4088 210.339 -55.4325L212.677 -55.623C224.284 -56.5694 225.951 -72.8927 214.774 -76.1658C202.835 -79.6625 205.817 -97.3436 218.243 -96.7306L226.475 -96.3245C238.138 -95.7492 242.059 -111.673 231.463 -116.579C220.132 -121.826 225.568 -138.93 237.849 -136.672L250.971 -134.259C262.636 -132.114 268.946 -147.425 259.157 -154.122C248.649 -161.311 256.748 -177.627 268.828 -173.603L284.991 -168.219C296.557 -164.366 305.462 -178.693 296.888 -187.359C287.621 -196.727 298.691 -211.832 310.415 -205.816L327.04 -197.284C338.3 -191.505 350.003 -204.252 343.287 -214.978C335.95 -226.695 350.309 -239.86 361.346 -231.537L375.478 -220.879C386.045 -212.911 400.604 -223.228 396.589 -235.838C392.14 -249.809 409.93 -259.935 419.672 -248.978L428.804 -238.706C438.021 -228.338 455.156 -235.204 454.664 -249.068C454.109 -264.689 474.999 -270.398 482.466 -256.666L485.863 -250.419C492.771 -237.716 511.694 -240.171 515.132 -254.216Z" fill="#3577F7"/>
</g>
<defs>
<filter id="filter0_f_9_10" x="0.732422" y="-466.276" width="1059.54" height="863.726" filterUnits="userSpaceOnUse" color-interpolation-filters="sRGB">
<feFlood flood-opacity="0" result="BackgroundImageFix"/>
<feBlend mode="normal" in="SourceGraphic" in2="BackgroundImageFix" result="shape"/>
<feGaussianBlur stdDeviation="100" result="effect1_foregroundBlur_9_10"/>
</filter>
</defs>
</svg>
